<svg width="60" height="60" viewBox="0 0 60 60" fill="none" xmlns="http://www.w3.org/2000/svg">
<path fill-rule="evenodd" clip-rule="evenodd" d="M30 2.81724e-06C13.4271 2.81724e-06 0 13.7686 0 30.7615C0 44.3541 8.59714 55.8793 20.5157 59.9482C22.0157 60.2298 22.5643 59.2796 22.5643 58.4658C22.5643 57.7356 22.5386 55.8001 22.5214 53.2311C14.1771 55.0919 12.42 49.1094 12.42 49.1094C11.0529 45.555 9.08571 44.6093 9.08571 44.6093C6.36429 42.7001 9.29143 42.7397 9.29143 42.7397C12.3043 42.9597 13.89 45.9069 13.89 45.9069C16.5643 50.6138 20.91 49.2501 22.62 48.4671C22.89 46.4788 23.6657 45.1239 24.5229 44.3541C17.8629 43.5799 10.86 40.9406 10.86 29.1515C10.86 25.7952 12.03 23.0459 13.9457 20.8992C13.6371 20.1206 12.6086 16.993 14.2457 12.7612C14.2457 12.7612 16.7571 11.9298 22.4914 15.9108C24.9389 15.2265 27.4634 14.8774 30 14.8727C32.55 14.8859 35.1171 15.2246 37.5129 15.9108C43.2386 11.9298 45.7543 12.7568 45.7543 12.7568C47.3914 16.993 46.3629 20.1206 46.0543 20.8948C47.9743 23.0503 49.14 25.7952 49.14 29.1515C49.14 40.967 42.12 43.5711 35.4386 44.3277C36.5143 45.2779 37.4743 47.1562 37.4743 50.0287C37.4743 54.1373 37.4357 57.4541 37.4357 58.4658C37.4357 59.2884 37.98 60.243 39.5014 59.9439C45.4689 57.9016 50.6591 53.9845 54.338 48.7475C58.0166 43.5101 59.9974 37.2179 60 30.7615C59.9954 22.5992 56.8323 14.7729 51.2063 9.00412C45.5803 3.23534 37.9523 -0.00348698 30 2.81724e-06Z" fill="#FFD035"/>
</svg>
