<svg aria-hidden="true" style="position: absolute; width: 0; height: 0; overflow: hidden;" version="1.1" xmlns="http://www.w3.org/2000/svg" xmlns:xlink="http://www.w3.org/1999/xlink">
<defs>
<symbol id="icon-git-hub" viewBox="0 0 32 32">
<path d="M16 0c-8.839 0-16 7.343-16 16.406 0 7.249 4.585 13.396 10.942 15.566 0.8 0.15 1.093-0.357 1.093-0.791 0-0.389-0.014-1.422-0.023-2.792-4.45 0.992-5.387-2.198-5.387-2.198-0.729-1.896-1.778-2.4-1.778-2.4-1.451-1.018 0.11-0.997 0.11-0.997 1.607 0.117 2.453 1.689 2.453 1.689 1.426 2.51 3.744 1.783 4.656 1.365 0.144-1.060 0.558-1.783 1.015-2.194-3.552-0.413-7.287-1.821-7.287-8.108 0-1.79 0.624-3.256 1.646-4.401-0.165-0.415-0.713-2.083 0.16-4.34 0 0 1.339-0.443 4.398 1.68 1.305-0.365 2.652-0.551 4.005-0.554 1.36 0.007 2.729 0.188 4.007 0.554 3.054-2.123 4.395-1.682 4.395-1.682 0.873 2.259 0.325 3.927 0.16 4.34 1.024 1.15 1.646 2.614 1.646 4.404 0 6.302-3.744 7.69-7.307 8.094 0.574 0.507 1.086 1.509 1.086 3.041 0 2.191-0.021 3.96-0.021 4.5 0 0.439 0.29 0.948 1.102 0.788 3.183-1.089 5.951-3.178 7.913-5.971s3.018-6.149 3.020-9.593c-0.002-4.353-1.689-8.527-4.69-11.604s-7.069-4.804-11.31-4.802z"></path>
</symbol>
<symbol id="icon-instagram" viewBox="0 0 32 32">
<path d="M16 24c-4.418 0-8-3.582-8-8s3.582-8 8-8c4.418 0 8 3.582 8 8s-3.582 8-8 8zM16 21.333c2.945 0 5.333-2.388 5.333-5.333s-2.388-5.333-5.333-5.333c-2.946 0-5.333 2.388-5.333 5.333s2.388 5.333 5.333 5.333z"></path>
<path d="M24 6.667c-0.736 0-1.333 0.597-1.333 1.333s0.597 1.333 1.333 1.333c0.736 0 1.333-0.597 1.333-1.333s-0.597-1.333-1.333-1.333z"></path>
<path d="M2.205 5.701c0.767-1.505 1.991-2.729 3.496-3.496 1.711-0.872 3.951-0.872 8.432-0.872h3.733c4.48 0 6.721 0 8.432 0.872 1.505 0.767 2.729 1.991 3.496 3.496 0.872 1.711 0.872 3.951 0.872 8.432v3.733c0 4.48 0 6.721-0.872 8.432-0.767 1.505-1.991 2.729-3.496 3.496-1.711 0.872-3.951 0.872-8.432 0.872h-3.733c-4.48 0-6.721 0-8.432-0.872-1.505-0.767-2.729-1.991-3.496-3.496-0.872-1.711-0.872-3.951-0.872-8.432v-3.733c0-4.48 0-6.721 0.872-8.432zM17.867 4h-3.733c-2.284 0-3.837 0.002-5.037 0.1-1.169 0.096-1.767 0.269-2.184 0.481-1.004 0.511-1.819 1.327-2.331 2.331-0.213 0.417-0.386 1.015-0.481 2.184-0.098 1.2-0.1 2.753-0.1 5.037v3.733c0 2.284 0.002 3.837 0.1 5.037 0.096 1.169 0.269 1.767 0.481 2.184 0.511 1.003 1.327 1.819 2.331 2.331 0.417 0.213 1.015 0.386 2.184 0.481 1.2 0.098 2.753 0.1 5.037 0.1h3.733c2.284 0 3.837-0.002 5.037-0.1 1.169-0.095 1.767-0.269 2.184-0.481 1.003-0.511 1.819-1.327 2.331-2.331 0.213-0.417 0.386-1.015 0.481-2.184 0.098-1.2 0.1-2.753 0.1-5.037v-3.733c0-2.284-0.002-3.837-0.1-5.037-0.095-1.169-0.269-1.767-0.481-2.184-0.511-1.004-1.327-1.819-2.331-2.331-0.417-0.213-1.015-0.386-2.184-0.481-1.2-0.098-2.753-0.1-5.037-0.1z"></path>
</symbol>
<symbol id="icon-youtube" viewBox="0 0 32 32">
<path d="M12.781 20.138v-8.979c3.188 1.5 5.656 2.949 8.576 4.511-2.408 1.336-5.389 2.834-8.576 4.468zM30.546 6.693c-0.55-0.724-1.487-1.288-2.485-1.475-2.933-0.557-21.227-0.558-24.158 0-0.8 0.15-1.513 0.513-2.124 1.076-2.579 2.393-1.771 15.229-1.149 17.308 0.261 0.9 0.599 1.549 1.025 1.975 0.548 0.563 1.299 0.951 2.161 1.125 2.415 0.499 14.854 0.779 24.195 0.075 0.861-0.15 1.622-0.55 2.223-1.137 2.384-2.384 2.222-15.94 0.312-18.946z"></path>
</symbol>
<symbol id="icon-Arrow" viewBox="0 0 32 32">
<path d="M14.333 30.008c0 0.92 0.746 1.667 1.667 1.667s1.667-0.746 1.667-1.667h-3.333zM17.179 0.822c-0.651-0.651-1.706-0.651-2.357 0l-10.607 10.607c-0.651 0.651-0.651 1.706 0 2.357s1.706 0.651 2.357 0l9.428-9.428 9.428 9.428c0.651 0.651 1.706 0.651 2.357 0s0.651-1.706 0-2.357l-10.607-10.607zM17.667 30.008v-28.008h-3.333v28.008h3.333z"></path>
</symbol>
<symbol id="icon-discord" viewBox="0 0 32 32">
<path d="M27.107 5.637c-2.071-0.969-4.286-1.673-6.602-2.075-0.284 0.514-0.617 1.206-0.846 1.756-2.462-0.37-4.9-0.37-7.317 0-0.229-0.55-0.569-1.242-0.856-1.756-2.318 0.401-4.535 1.108-6.607 2.080-4.178 6.314-5.311 12.47-4.744 18.54 2.771 2.069 5.457 3.326 8.097 4.149 0.652-0.897 1.233-1.851 1.734-2.856-0.954-0.362-1.868-0.81-2.731-1.329 0.229-0.17 0.453-0.347 0.67-0.53 5.265 2.463 10.986 2.463 16.189 0 0.219 0.183 0.443 0.36 0.669 0.53-0.866 0.522-1.782 0.969-2.736 1.332 0.501 1.003 1.080 1.959 1.734 2.856 2.643-0.823 5.331-2.080 8.102-4.152 0.664-7.036-1.135-13.136-4.757-18.545zM10.684 20.449c-1.581 0-2.877-1.476-2.877-3.273s1.269-3.275 2.877-3.275c1.608 0 2.905 1.476 2.877 3.275 0.002 1.797-1.268 3.273-2.877 3.273zM21.316 20.449c-1.581 0-2.877-1.476-2.877-3.273s1.268-3.275 2.877-3.275c1.608 0 2.904 1.476 2.877 3.275 0 1.797-1.269 3.273-2.877 3.273z"></path>
</symbol>
<symbol id="icon-menu" viewBox="0 0 32 32">
<path d="M6.4 11.733v-2.133h19.2v2.133h-19.2zM6.4 17.067h19.2v-2.133h-19.2v2.133zM6.4 22.4h19.2v-2.133h-19.2v2.133z"></path>
</symbol>
<symbol id="icon-close" viewBox="0 0 32 32">
<path d="M23.733 10.304l-1.504-1.504-5.963 5.963-5.963-5.963-1.504 1.504 5.963 5.963-5.963 5.963 1.504 1.504 5.963-5.963 5.963 5.963 1.504-1.504-5.963-5.963 5.963-5.963z"></path>
</symbol>
</defs>
</svg>
